<svg xmlns="http://www.w3.org/2000/svg" width="177" height="41.666" viewBox="0 0 177 41.666">
  <g id="Agrupar_11" data-name="Agrupar 11" transform="translate(-116 136.004)">
    <text id="Meus" transform="translate(116 -107)" fill="#fff" font-size="20" font-family="OpenSans-Semibold, Open Sans" font-weight="600"><tspan x="0" y="0">Meus</tspan></text>
    <text id="pontos" transform="translate(225 -109)" fill="#fff" font-size="20" font-family="OpenSans-Semibold, Open Sans" font-weight="600"><tspan x="0" y="0">pontos</tspan></text>
    <g id="Agrupar_10" data-name="Agrupar 10" transform="translate(-764 -606.003)">
      <path id="Caminho_3" data-name="Caminho 3" d="M249.667,212.833a20.834,20.834,0,0,1-40.144,7.813A20.52,20.52,0,0,1,208,212.833,20.784,20.784,0,0,1,228.833,192a20.52,20.52,0,0,1,7.813,1.523,20.8,20.8,0,0,1,13.021,19.31Zm0,0" transform="translate(731 278)" fill="#ffdd57"/>
      <path id="Caminho_4" data-name="Caminho 4" d="M244.81,251.323a20.834,20.834,0,0,1-35.287-5.56A20.52,20.52,0,0,1,208,237.951a21.005,21.005,0,0,1,.235-3.164A20.746,20.746,0,0,1,215.448,222a20.073,20.073,0,0,0-2.057,2.93,20.757,20.757,0,0,0-2.552,7.252,21.007,21.007,0,0,0-.235,3.164,20.521,20.521,0,0,0,1.523,7.813,20.834,20.834,0,0,0,32.683,8.164Zm0,0" transform="translate(731 252.883)" fill="#e8c950"/>
      <path id="Caminho_25" data-name="Caminho 25" d="M328,248h2.6v9.115H328Zm0,0" transform="translate(630.531 231.114)" fill="#00d1b2"/>
      <path id="Caminho_26" data-name="Caminho 26" d="M280,312h6.511v2.6H280Zm0,0" transform="translate(670.718 177.531)" fill="#00d1b2"/>
      <path id="Caminho_27" data-name="Caminho 27" d="M315.906,303.813a3.906,3.906,0,1,1,3.906-3.906A3.907,3.907,0,0,1,315.906,303.813Zm0-5.208a1.3,1.3,0,1,0,1.3,1.3A1.3,1.3,0,0,0,315.906,298.6Zm0,0" transform="translate(643.927 190.927)" fill="#06ac94"/>
      <path id="Caminho_28" data-name="Caminho 28" d="M232,312h2.6v2.6H232Zm0,0" transform="translate(710.906 177.531)" fill="#06ac94"/>
      <path id="Caminho_29" data-name="Caminho 29" d="M328,408h2.6v2.6H328Zm0,0" transform="translate(630.531 97.156)" fill="#06ac94"/>
      <path id="Caminho_30" data-name="Caminho 30" d="M424,312h2.6v2.6H424Zm0,0" transform="translate(550.156 177.531)" fill="#06ac94"/>
      <path id="Caminho_31" data-name="Caminho 31" d="M328,216h2.6v2.6H328Zm0,0" transform="translate(630.531 257.906)" fill="#06ac94"/>
    </g>
  </g>
</svg>
